<svg xmlns="http://www.w3.org/2000/svg" fill="none" viewBox="0 0 24 22"><path fill="#fff" d="m17.6836 8.2796-4.7781-7.11a1.0822 1.0822 0 0 0-.3958-.3394A1.0889 1.0889 0 0 0 12 .7144c-.3491 0-.6982.1518-.9055.466L6.3164 8.2797H1.0909C.491 8.2796 0 8.7673 0 9.3634c0 .0976.011.1951.0436.2927l2.771 10.0472c.2508.9104 1.0909 1.5824 2.0945 1.5824h14.1818c1.0036 0 1.8436-.672 2.1055-1.5824l2.7709-10.0472L24 9.3634c0-.596-.4909-1.0838-1.0909-1.0838h-5.2255Zm-8.9563 0L12 3.5107l3.2727 4.769H8.7273ZM12 16.9503c-1.2 0-2.1818-.9754-2.1818-2.1677 0-1.1922.9818-2.1676 2.1818-2.1676s2.1818.9754 2.1818 2.1676c0 1.1923-.9818 2.1677-2.1818 2.1677Z"/></svg>